<svg width="54" height="54" viewBox="0 0 54 54" fill="none" xmlns="http://www.w3.org/2000/svg">
<path d="M52.1321 21.7579C52.2452 20.7135 51.9585 19.665 51.3295 18.8236C50.7005 17.9822 49.776 17.4104 48.7423 17.2234C48.0654 16.1945 47.1434 15.3499 46.0593 14.7654C44.9752 14.181 43.7629 13.875 42.5312 13.875C41.2996 13.875 40.0873 14.181 39.0032 14.7654C37.9191 15.3499 36.9971 16.1945 36.3202 17.2234C35.8281 17.3127 35.3564 17.4909 34.9282 17.7492L38.3167 8.93913C38.3592 8.82875 38.3788 8.71091 38.3745 8.59273C38.3701 8.47455 38.3418 8.35848 38.2914 8.25153C38.2409 8.14458 38.1693 8.04897 38.0808 7.97048C37.9924 7.89198 37.8889 7.83224 37.7767 7.79484L35.1517 6.91984C34.938 6.84853 34.7051 6.86237 34.5013 6.95849C34.2976 7.05461 34.1388 7.22561 34.058 7.43587L33.125 9.86247V1.625C33.125 1.39294 33.0328 1.17038 32.8687 1.00628C32.7046 0.842187 32.4821 0.75 32.25 0.75H28.75C28.5179 0.75 28.2954 0.842187 28.1313 1.00628C27.9672 1.17038 27.875 1.39294 27.875 1.625V9.86291L26.9417 7.43598C26.8609 7.22569 26.7021 7.05468 26.4984 6.95853C26.2946 6.86239 26.0616 6.84853 25.848 6.91984L23.223 7.79484C23.1108 7.83224 23.0073 7.89198 22.9189 7.97048C22.8304 8.04897 22.7588 8.14458 22.7083 8.25153C22.6578 8.35848 22.6296 8.47455 22.6252 8.59273C22.6209 8.71091 22.6405 8.82875 22.683 8.93913L26.4314 18.6844C26.808 19.6615 27.0008 20.6998 27.0001 21.7469V22.7356C26.7088 22.8472 26.4263 22.9807 26.1551 23.1349L25.8575 22.5396C25.4783 21.7746 24.8924 21.1312 24.1661 20.6824C23.4398 20.2335 22.6023 19.9971 21.7486 20H19.6719C19.5227 20 19.3761 20.0381 19.2458 20.1108C19.1155 20.1834 19.006 20.2881 18.9276 20.415C18.8492 20.5419 18.8045 20.6867 18.7978 20.8357C18.7911 20.9847 18.8226 21.1329 18.8893 21.2663L19.6112 22.7101C19.9903 23.4751 20.5762 24.1186 21.3025 24.5675C22.0288 25.0165 22.8664 25.2529 23.7202 25.25H23.9563C23.6314 25.7737 23.3866 26.3429 23.2298 26.939C22.887 26.5906 22.4741 26.3188 22.0186 26.1416C21.563 25.9644 21.075 25.8857 20.5869 25.9108C20.0987 25.9359 19.6214 26.0641 19.1864 26.2871C18.7514 26.5101 18.3686 26.8227 18.0632 27.2044L17.8578 27.4613C17.6552 27.7149 17.4718 27.9831 17.309 28.2638L16.5301 25.5693C16.1618 24.302 15.364 23.2025 14.2735 22.4593C15.0376 21.8854 15.5929 21.0772 15.8545 20.158C16.1162 19.2389 16.0698 18.2594 15.7226 17.3691C15.3682 16.4744 14.7306 15.7204 13.9072 15.2224C13.0838 14.7243 12.12 14.5096 11.163 14.6111C10.4405 13.9936 9.56393 13.5837 8.62677 13.4252C7.68961 13.2666 6.72699 13.3654 5.84155 13.711C4.95611 14.0565 4.18104 14.6359 3.59898 15.3873C3.01692 16.1387 2.64968 17.034 2.53642 17.9777C1.76391 18.5514 1.20044 19.3623 0.932095 20.2864C0.663751 21.2105 0.705282 22.197 1.05034 23.0953C1.39533 23.9873 2.0241 24.7411 2.83976 25.2406C3.65542 25.74 4.61269 25.9573 5.56403 25.859C5.26553 27.1442 5.42353 28.4931 6.01094 29.6745L9.04139 35.75H1.625C1.39294 35.75 1.17038 35.8422 1.00628 36.0063C0.842187 36.1704 0.75 36.3929 0.75 36.625V52.375C0.75 52.6071 0.842187 52.8296 1.00628 52.9937C1.17038 53.1578 1.39294 53.25 1.625 53.25H52.375C52.6071 53.25 52.8296 53.1578 52.9937 52.9937C53.1578 52.8296 53.25 52.6071 53.25 52.375V36.625C53.25 36.3929 53.1578 36.1704 52.9937 36.0063C52.8296 35.8422 52.6071 35.75 52.375 35.75H46.8953C46.9948 35.1335 47.1998 34.5388 47.5014 33.9919C47.5941 33.9967 47.6873 34 47.7809 34C48.6425 33.9998 49.4907 33.7876 50.2509 33.3821C51.0111 32.9767 51.6599 32.3904 52.14 31.675C52.6201 30.9596 52.9168 30.1371 53.004 29.28C53.0911 28.4228 52.9661 27.5574 52.6398 26.76C53.1134 25.9853 53.3202 25.0767 53.2284 24.1734C53.1367 23.27 52.7515 22.4216 52.1318 21.7579H52.1321ZM42.6 34.2868C42.4726 33.6689 42.2639 33.0705 41.9795 32.5074C42.1679 32.4175 42.3523 32.3189 42.5312 32.2108C42.7455 32.3396 42.9672 32.4556 43.1952 32.5582C42.9239 33.1067 42.7239 33.6876 42.6 34.2868ZM40.2871 33.053C40.7553 33.8747 41.0011 34.8043 41 35.75H40.0722C39.9783 34.9842 39.7615 34.2387 39.4301 33.5419C39.7305 33.4063 40.0174 33.2426 40.2871 33.053ZM37.6937 33.9841C37.9976 34.5331 38.204 35.1306 38.304 35.75H35.7001C35.5738 35.1535 35.3187 34.5917 34.9527 34.104L34.0192 32.859C34.9456 33.5985 36.0959 34.0008 37.2812 34C37.4198 34 37.5573 33.9947 37.6937 33.9841ZM30.3775 35.0391C30.9229 34.1645 31.2549 33.1738 31.3467 32.1472C31.4385 31.1206 31.2875 30.0868 30.906 29.1293L32.1167 26.1462C32.2017 26.3589 32.3042 26.5642 32.4229 26.76C31.9689 27.8687 31.9079 29.0992 32.25 30.2473V33.125C32.25 33.3143 32.3114 33.4985 32.425 33.65L33.5528 35.1541C33.6894 35.3365 33.7998 35.5371 33.8809 35.7501H29.9325L30.3775 35.0391ZM35.3916 8.84452L36.3546 9.16553L32.9351 18.0561C32.5589 19.0342 32.3352 20.0643 32.2719 21.1104L29.7759 27.2601L29.7314 27.2044C29.46 26.8649 29.127 26.5795 28.75 26.3632V25.0427L35.3916 8.84452ZM29.625 14.3125V2.5H31.375V14.0745C31.3751 14.1576 31.3871 14.2403 31.4105 14.32L30.5 16.6881L29.6207 14.4022C29.6237 14.3724 29.6251 14.3424 29.625 14.3125ZM24.6454 9.16553L25.6079 8.84452L29.1724 18.1134C29.3107 18.4737 29.4174 18.8453 29.4915 19.2241L28.7149 20.9194C28.637 19.9387 28.4181 18.9744 28.0649 18.0562L24.6454 9.16553ZM27 24.8518V25.9071C26.4189 25.9119 25.8484 26.0632 25.3413 26.347C25.7332 25.6484 26.3062 25.0685 27 24.6682V24.8518ZM21.1767 21.928L21.0876 21.75H21.7486C22.2771 21.7482 22.7955 21.8945 23.2451 22.1724C23.6947 22.4502 24.0574 22.8485 24.2921 23.322L24.3811 23.5H23.7202C23.1917 23.5018 22.6732 23.3555 22.2237 23.0776C21.7741 22.7998 21.4114 22.4015 21.1767 21.928ZM19.2242 28.5545L19.4297 28.2977C19.5977 28.0879 19.8127 27.9206 20.0574 27.8095C20.3022 27.6983 20.5697 27.6465 20.8382 27.6581C21.1067 27.6698 21.3687 27.7446 21.6029 27.8765C21.8371 28.0084 22.0368 28.1937 22.186 28.4173C22.3737 28.6989 22.6282 28.9299 22.9266 29.0896C23.2251 29.2493 23.5584 29.3329 23.8969 29.3329C24.2354 29.3329 24.5687 29.2493 24.8671 29.0896C25.1656 28.9299 25.42 28.6989 25.6078 28.4173C25.8178 28.1026 26.1263 27.8665 26.4848 27.7458C26.8434 27.625 27.2318 27.6266 27.5894 27.7501C27.5949 27.752 27.6004 27.7542 27.6058 27.756C27.9042 27.8625 28.167 28.0502 28.3646 28.2978L28.57 28.5545C29.192 29.3336 29.5572 30.2865 29.615 31.2817C29.6729 32.277 29.4207 33.2658 28.8931 34.1117L27.8693 35.75H19.9253L18.9012 34.1116C18.3736 33.2657 18.1213 32.277 18.1791 31.2817C18.237 30.2864 18.6021 29.3336 19.2242 28.5545ZM16.4309 31.2233C16.4289 31.2174 16.4272 31.2116 16.4251 31.2057L16.4313 31.2127C16.4311 31.2166 16.4311 31.2201 16.4309 31.2237V31.2233ZM2.68058 22.4587C2.45546 21.874 2.44572 21.2282 2.65309 20.6369C2.86047 20.0455 3.27144 19.5473 3.8125 19.2312C3.94196 19.1567 4.0502 19.0503 4.1269 18.9221C4.20359 18.7939 4.2462 18.6482 4.25066 18.4989C4.27074 17.8119 4.4926 17.146 4.88858 16.5842C5.28457 16.0225 5.83715 15.5897 6.47744 15.3398C7.11773 15.09 7.8174 15.0342 8.48922 15.1793C9.16103 15.3244 9.77527 15.6641 10.2553 16.1559C10.3598 16.2627 10.4898 16.341 10.6331 16.3833C10.7763 16.4256 10.928 16.4305 11.0737 16.3976C11.6858 16.2637 12.3256 16.3519 12.8787 16.6465C13.4317 16.9411 13.862 17.4228 14.0924 18.0054C14.2374 18.3734 14.2971 18.7695 14.267 19.1639C14.2369 19.5582 14.1177 19.9407 13.9185 20.2824C13.7193 20.6241 13.4453 20.9161 13.1169 21.1367C12.7886 21.3572 12.4145 21.5004 12.0228 21.5555C11.9923 21.5505 11.962 21.5446 11.9315 21.5397C12.1159 20.6793 12.5226 19.8824 13.1112 19.2284C13.1894 19.1433 13.25 19.0436 13.2894 18.9351C13.3289 18.8265 13.3465 18.7112 13.3411 18.5958C13.3358 18.4804 13.3077 18.3672 13.2584 18.2627C13.2091 18.1583 13.1396 18.0646 13.0539 17.9871C12.9682 17.9096 12.868 17.8499 12.7591 17.8113C12.6502 17.7728 12.5348 17.7562 12.4194 17.7625C12.3041 17.7688 12.1911 17.7978 12.0871 17.848C11.983 17.8982 11.8899 17.9684 11.8132 18.0548C10.9884 18.9716 10.4288 20.0958 10.1944 21.3066C10.0533 21.3193 9.91739 21.3662 9.79848 21.4433L8.56539 18.2837C8.52362 18.1766 8.46118 18.0789 8.38162 17.9959C8.30207 17.913 8.20696 17.8466 8.10173 17.8004C7.9965 17.7543 7.88321 17.7293 7.76832 17.7269C7.65343 17.7245 7.53921 17.7448 7.43216 17.7866C7.32511 17.8283 7.22733 17.8908 7.14441 17.9703C7.0615 18.0499 6.99506 18.145 6.9489 18.2502C6.90274 18.3555 6.87776 18.4688 6.87538 18.5836C6.873 18.6985 6.89328 18.8128 6.93505 18.9198L8.16814 22.0794C8.02849 22.1034 7.89675 22.1609 7.78424 22.247C6.79166 21.5152 5.61861 21.0674 4.39087 20.9516C4.27644 20.941 4.16106 20.9532 4.05131 20.9873C3.94157 21.0213 3.83961 21.0767 3.75126 21.1502C3.66291 21.2237 3.5899 21.3138 3.53639 21.4155C3.48289 21.5172 3.44994 21.6285 3.43942 21.7429C3.42891 21.8573 3.44104 21.9727 3.47511 22.0825C3.50919 22.1922 3.56455 22.2942 3.63803 22.3825C3.71151 22.4709 3.80168 22.5439 3.90338 22.5974C4.00508 22.6509 4.11632 22.6838 4.23075 22.6943C5.10678 22.7767 5.94587 23.0875 6.66423 23.5956C6.64477 23.6198 6.62661 23.6449 6.60758 23.6693C6.28208 23.8939 5.90993 24.0417 5.51908 24.1018C5.12823 24.1618 4.72886 24.1325 4.35096 24.0161C3.97307 23.8996 3.62648 23.699 3.33724 23.4293C3.04801 23.1597 2.82365 22.828 2.68102 22.4592L2.68058 22.4587ZM10.3671 34.4874L11.8459 33.9103C11.9533 33.8688 12.0515 33.8065 12.1349 33.727C12.2182 33.6475 12.285 33.5523 12.3314 33.4469C12.3779 33.3415 12.4031 33.228 12.4056 33.1129C12.408 32.9977 12.3878 32.8832 12.3459 32.7759C12.304 32.6686 12.2414 32.5706 12.1615 32.4876C12.0817 32.4046 11.9863 32.3381 11.8807 32.292C11.7752 32.246 11.6615 32.2212 11.5464 32.2192C11.4312 32.2171 11.3168 32.2378 11.2096 32.2801L9.5828 32.915L8.79836 31.3422L9.75834 30.9676C9.97454 30.8832 10.1484 30.7164 10.2416 30.5039C10.3348 30.2913 10.3398 30.0505 10.2554 29.8343C10.171 29.6181 10.0042 29.4443 9.7917 29.351C9.57916 29.2578 9.33831 29.2529 9.12211 29.3372L8.01392 29.7697L7.57642 28.8931C7.33071 28.4065 7.19038 27.8737 7.16457 27.3292C7.13877 26.7848 7.22809 26.241 7.42669 25.7334C7.53551 25.4512 7.6762 25.1824 7.84603 24.9322C8.17168 24.6743 8.45855 24.3709 8.69784 24.0313C8.99091 23.808 9.31378 23.6268 9.65706 23.4929H9.6587L9.66045 23.4921C10.0038 23.3581 10.3642 23.2728 10.7312 23.2386C11.137 23.3262 11.5532 23.355 11.9672 23.3242C12.2618 23.3932 12.5476 23.4957 12.8189 23.6297C13.3087 23.8686 13.7426 24.2081 14.0923 24.626C14.442 25.044 14.6997 25.531 14.8484 26.0552L16.2411 30.8725C16.2466 30.8917 16.2536 30.9099 16.2604 30.9284C16.142 30.7933 15.9849 30.6978 15.8104 30.6551C15.6358 30.6123 15.4524 30.6243 15.285 30.6894L14.4698 31.0076C14.2536 31.092 14.0798 31.2587 13.9865 31.4713C13.8933 31.6838 13.8883 31.9246 13.9727 32.1408C14.057 32.357 14.2238 32.5309 14.4363 32.6241C14.6489 32.7173 14.8897 32.7223 15.1059 32.638L15.9211 32.3199C16.0378 32.2743 16.1434 32.2042 16.2306 32.1142C16.3178 32.0241 16.3846 31.9164 16.4265 31.7983C16.4665 32.9467 16.808 34.0644 17.4168 35.0391L17.8611 35.75H10.997L10.3671 34.4874ZM51.5 46.25H2.5V42.75H51.5V46.25ZM51.5 51.5H2.5V48H51.5V51.5ZM51.5 41H2.5V37.5H51.5V41ZM45.1275 35.75H44.1997C44.199 34.8306 44.4313 33.926 44.8747 33.1206C45.1497 33.3047 45.4416 33.4622 45.7464 33.5909C45.428 34.2737 45.2191 35.0023 45.1275 35.75ZM50.9554 26.1172C50.8452 26.2516 50.7776 26.4157 50.761 26.5886C50.7444 26.7616 50.7797 26.9356 50.8623 27.0884C51.1497 27.6216 51.2937 28.2203 51.2804 28.8259C51.2671 29.4315 51.0969 30.0233 50.7864 30.5435C50.4759 31.0636 50.0358 31.4943 49.5091 31.7934C48.9823 32.0925 48.387 32.2498 47.7812 32.25C47.0029 32.2524 46.2465 31.9927 45.6339 31.5126C45.5109 31.4168 45.3645 31.3556 45.2098 31.3353C44.4286 31.2324 43.687 30.9298 43.0568 30.4567C42.9052 30.3428 42.7208 30.2813 42.5312 30.2813C42.3417 30.2813 42.1573 30.3428 42.0057 30.4567C41.3755 30.9298 40.6339 31.2324 39.8527 31.3353C39.698 31.3556 39.5516 31.4168 39.4286 31.5126C38.816 31.9927 38.0596 32.2524 37.2812 32.25C36.6755 32.2498 36.0802 32.0925 35.5534 31.7934C35.0267 31.4943 34.5866 31.0636 34.2761 30.5435C33.9656 30.0233 33.7954 29.4315 33.7821 28.8259C33.7688 28.2203 33.9128 27.6216 34.2002 27.0884C34.2828 26.9356 34.3181 26.7616 34.3015 26.5886C34.2849 26.4157 34.2173 26.2516 34.1071 26.1172C33.7957 25.7373 33.6081 25.2711 33.5698 24.7814C33.5315 24.2916 33.6442 23.8019 33.8927 23.3782L33.8949 23.3744C34.0359 23.1349 34.2172 22.9216 34.4308 22.7438C34.5559 22.6396 34.6494 22.5027 34.7009 22.3483C34.7524 22.1939 34.7598 22.0282 34.7223 21.8699C34.6412 21.5296 34.6352 21.1758 34.7049 20.833C34.7745 20.4902 34.9182 20.1667 35.1257 19.8851C35.3332 19.6035 35.5997 19.3706 35.9065 19.2026C36.2133 19.0346 36.5531 18.9356 36.9022 18.9124C37.0458 18.9029 37.1848 18.8582 37.307 18.7822C37.4292 18.7061 37.5308 18.6011 37.6027 18.4764C38.1011 17.6098 38.8192 16.8898 39.6845 16.3892C40.5499 15.8886 41.532 15.625 42.5317 15.625C43.5314 15.625 44.5135 15.8886 45.3789 16.3892C46.2442 16.8898 46.9623 17.6098 47.4607 18.4764C47.5326 18.6011 47.6341 18.7061 47.7563 18.7822C47.8785 18.8582 48.0176 18.9029 48.1612 18.9124C48.5102 18.9355 48.85 19.0345 49.1568 19.2025C49.4637 19.3705 49.7301 19.6034 49.9377 19.885C50.1452 20.1665 50.2888 20.49 50.3585 20.8328C50.4282 21.1756 50.4222 21.5294 50.3411 21.8697C50.3035 22.028 50.3109 22.1938 50.3624 22.3482C50.4139 22.5026 50.5075 22.6396 50.6325 22.7438C50.9043 22.9694 51.1229 23.2521 51.2729 23.5719C51.4228 23.8917 51.5004 24.2406 51.5 24.5938C51.5023 25.1496 51.3096 25.6887 50.9554 26.1172Z" fill="white"/>
</svg>
