<svg width="48" height="53" viewBox="0 0 48 53" fill="none" xmlns="http://www.w3.org/2000/svg">
<path d="M47.0339 31.7994C46.9517 31.7054 46.8505 31.6301 46.7368 31.5785C46.6232 31.5268 46.4998 31.5001 46.375 31.5001H42.2625L43.7308 23.7888C43.7496 23.6864 43.7496 23.5814 43.7308 23.479L44.1341 21.6013L45.4405 23.7791L44.3887 28.7185C44.3402 28.9454 44.3837 29.1822 44.5097 29.3769C44.6357 29.5717 44.8339 29.7085 45.0608 29.7571C45.1215 29.7699 45.1833 29.7764 45.2454 29.7764C45.4453 29.7761 45.639 29.7073 45.7944 29.5815C45.9498 29.4558 46.0574 29.2806 46.0994 29.0851L47.2299 23.808C47.2771 23.5912 47.2395 23.3645 47.1249 23.1745L44.4999 18.7995C44.4098 18.649 44.2766 18.5291 44.1176 18.4553C43.9585 18.3814 43.781 18.357 43.6079 18.3853C43.4348 18.4136 43.2743 18.4933 43.147 18.6139C43.0198 18.7346 42.9317 18.8907 42.8942 19.062L42.175 22.4001L38.8211 21.0588C38.6972 21.0092 38.5636 20.9887 38.4305 20.9987C38.2974 21.0087 38.1684 21.049 38.0533 21.1166C37.9382 21.1842 37.8401 21.2771 37.7665 21.3884C37.6928 21.4998 37.6457 21.6264 37.6285 21.7588L36.9022 27.567L36.3186 27.4209L35.875 21.8051C35.8571 21.6145 35.7772 21.435 35.6475 21.2941L35.8225 19.041L36.6546 18.7916L38.9611 20.0219C39.0626 20.0781 39.1743 20.1136 39.2896 20.1262C39.405 20.1389 39.5217 20.1285 39.633 20.0956C39.7443 20.0627 39.8479 20.0081 39.9378 19.9348C40.0278 19.8615 40.1023 19.771 40.1569 19.6686C40.2116 19.5663 40.2453 19.4541 40.2562 19.3386C40.2671 19.223 40.2549 19.1065 40.2203 18.9957C40.1858 18.885 40.1295 18.7822 40.0548 18.6934C39.9801 18.6046 39.8886 18.5315 39.7854 18.4784L37.1604 17.0784C36.9567 16.9696 36.7183 16.9457 36.4971 17.0119L34.7471 17.5369C34.5782 17.5875 34.4286 17.6879 34.3177 17.8249C34.2068 17.962 34.14 18.1294 34.1259 18.3051L34.0174 19.6579L32.9919 18.6315C32.9033 18.5432 32.7967 18.4749 32.6795 18.4312C32.5622 18.3876 32.4369 18.3696 32.3121 18.3785C32.1873 18.3873 32.0658 18.4229 31.9559 18.4827C31.846 18.5425 31.7502 18.6252 31.675 18.7251L30.625 20.1251V19.2501C30.625 18.554 30.3484 17.8863 29.8562 17.394C29.3639 16.9017 28.6962 16.6251 28 16.6251H26.25V15.7501C26.25 15.054 25.9734 14.3863 25.4812 13.894C24.9889 13.4017 24.3212 13.1251 23.625 13.1251H19.25V8.9864L25.956 4.51515C26.0516 4.45139 26.1337 4.36941 26.1977 4.27391C26.2616 4.1784 26.3061 4.07124 26.3286 3.95854C26.3511 3.84584 26.3512 3.72982 26.3288 3.61708C26.3065 3.50435 26.2622 3.39712 26.1984 3.30152L24.2576 0.389526C24.1939 0.293912 24.1119 0.211797 24.0164 0.147868C23.9209 0.08394 23.8137 0.0394517 23.701 0.0169443C23.5883 -0.00556306 23.4723 -0.00564859 23.3596 0.0166925C23.2468 0.0390336 23.1396 0.0833638 23.044 0.147151L15.169 5.39715C14.809 5.63645 14.5139 5.96111 14.3099 6.34219C14.106 6.72327 13.9995 7.14891 14 7.58115V13.1251H9.625C8.92881 13.1251 8.26113 13.4017 7.76884 13.894C7.27656 14.3863 7 15.054 7 15.7501V16.6251H5.25C4.55381 16.6251 3.88613 16.9017 3.39384 17.394C2.90156 17.8863 2.625 18.554 2.625 19.2501V21.0001C2.625 21.0176 3.15 25.6096 3.15 25.6096C3.17426 25.823 3.27611 26.0199 3.43616 26.163C3.59621 26.3062 3.8033 26.3854 4.018 26.3858C4.05135 26.3859 4.08467 26.3839 4.11775 26.3796C4.34813 26.3533 4.55863 26.2366 4.70301 26.0551C4.84739 25.8737 4.91383 25.6423 4.88775 25.4119L4.48 21.8751H11.375C11.6071 21.8751 11.8296 21.783 11.9937 21.6189C12.1578 21.4548 12.25 21.2322 12.25 21.0001C12.25 20.7681 12.1578 20.5455 11.9937 20.3814C11.8296 20.2173 11.6071 20.1251 11.375 20.1251H4.375V19.2501C4.375 19.0181 4.46719 18.7955 4.63128 18.6314C4.79538 18.4673 5.01794 18.3751 5.25 18.3751H28C28.2321 18.3751 28.4546 18.4673 28.6187 18.6314C28.7828 18.7955 28.875 19.0181 28.875 19.2501V20.1251H14.875C14.6429 20.1251 14.4204 20.2173 14.2563 20.3814C14.0922 20.5455 14 20.7681 14 21.0001C14 21.2322 14.0922 21.4548 14.2563 21.6189C14.4204 21.783 14.6429 21.8751 14.875 21.8751H29.3125L29.05 22.2251C28.9204 22.3962 28.8581 22.6088 28.875 22.8228L29.1375 25.9771L28.8207 25.0829C28.7768 24.9588 28.7055 24.8462 28.612 24.7534C28.5185 24.6607 28.4054 24.5903 28.2809 24.5474L25.6883 23.6566C25.4688 23.5814 25.2285 23.5964 25.0201 23.6983C24.8118 23.8002 24.6524 23.9807 24.577 24.2L24.1036 25.5764L23.562 24.1834C23.4984 24.0196 23.3869 23.8787 23.2421 23.7791C23.0972 23.6795 22.9258 23.6259 22.75 23.6251H19.25C19.109 23.625 18.97 23.659 18.8449 23.7242C18.7199 23.7894 18.6124 23.8838 18.5317 23.9995C18.451 24.1152 18.3995 24.2486 18.3815 24.3885C18.3635 24.5284 18.3796 24.6706 18.4284 24.8029L18.9735 26.2808C18.774 26.2676 18.5771 26.2501 18.375 26.2501H9.625C7.73726 26.2483 5.89104 26.8041 4.31813 27.8479C4.22235 27.9114 4.14003 27.9932 4.07586 28.0886C4.01169 28.1839 3.96694 28.291 3.94415 28.4037C3.89812 28.6312 3.94436 28.8677 4.07269 29.0611C4.20102 29.2545 4.40093 29.389 4.62845 29.4351C4.85597 29.4811 5.09245 29.4348 5.28588 29.3065C6.57206 28.4533 8.08154 27.9988 9.625 28.0001H18.375C20.3114 28.0025 22.1792 28.7173 23.6225 30.0082C25.0657 31.2992 25.9836 33.076 26.201 35.0001H1.799C1.93669 33.7617 2.36807 32.5741 3.05725 31.536C3.17292 31.3426 3.20948 31.112 3.15931 30.8922C3.10915 30.6725 2.97613 30.4806 2.78798 30.3565C2.59983 30.2324 2.37105 30.1857 2.14932 30.2262C1.92759 30.2666 1.73001 30.391 1.59775 30.5735C0.555282 32.1451 -0.00048898 33.9892 3.2281e-07 35.8751C3.2281e-07 36.1072 0.0921877 36.3298 0.256282 36.4939C0.420376 36.658 0.642936 36.7501 0.875 36.7501H0.98525C1.13448 37.3691 1.44238 37.9384 1.87863 38.4021C1.798 38.7204 1.75483 39.0469 1.75 39.3751C1.75102 40.5081 2.1936 41.596 2.98375 42.4079C2.47369 42.7186 2.08767 43.1971 1.89192 43.7613C1.69618 44.3256 1.70292 44.9403 1.911 45.5001H0.875C0.642936 45.5001 0.420376 45.5923 0.256282 45.7564C0.0921877 45.9205 3.2281e-07 46.1431 3.2281e-07 46.3751V48.1251C0.0013897 49.285 0.462772 50.397 1.28294 51.2172C2.10311 52.0374 3.2151 52.4987 4.375 52.5001H7C7.23206 52.5001 7.45462 52.4079 7.61872 52.2439C7.78281 52.0798 7.875 51.8572 7.875 51.6251C7.875 51.3931 7.78281 51.1705 7.61872 51.0064C7.45462 50.8423 7.23206 50.7501 7 50.7501H4.375C3.67881 50.7501 3.01113 50.4736 2.51885 49.9813C2.02656 49.489 1.75 48.8213 1.75 48.1251V47.2501H15.5041L15.9416 47.7961C16.0236 47.8986 16.1276 47.9814 16.2459 48.0383C16.3642 48.0951 16.4937 48.1247 16.625 48.1247C16.7563 48.1247 16.8858 48.0951 17.0041 48.0383C17.1224 47.9814 17.2264 47.8986 17.3084 47.7961L20.5459 43.7501H23.625C23.8571 43.7501 24.0796 43.8423 24.2437 44.0064C24.4078 44.1705 24.5 44.3931 24.5 44.6251C24.5 44.8572 24.4078 45.0798 24.2437 45.2439C24.0796 45.408 23.8571 45.5001 23.625 45.5001H21.7C21.4679 45.5001 21.2454 45.5923 21.0813 45.7564C20.9172 45.9205 20.825 46.1431 20.825 46.3751C20.825 46.6072 20.9172 46.8298 21.0813 46.9939C21.2454 47.158 21.4679 47.2501 21.7 47.2501H26.25V48.1251C26.25 48.8213 25.9734 49.489 25.4812 49.9813C24.9889 50.4736 24.3212 50.7501 23.625 50.7501H10.5C10.2679 50.7501 10.0454 50.8423 9.88128 51.0064C9.71719 51.1705 9.625 51.3931 9.625 51.6251C9.625 51.8572 9.71719 52.0798 9.88128 52.2439C10.0454 52.4079 10.2679 52.5001 10.5 52.5001H23.625C24.7849 52.4987 25.8969 52.0374 26.7171 51.2172C27.5372 50.397 27.9986 49.285 28 48.1251V46.3751C28 46.1431 27.9078 45.9205 27.7437 45.7564C27.5796 45.5923 27.3571 45.5001 27.125 45.5001H26.089C26.2971 44.9403 26.3038 44.3256 26.1081 43.7613C25.9123 43.1971 25.5263 42.7186 25.0163 42.4079C25.8064 41.596 26.249 40.5081 26.25 39.3751C26.2473 39.0649 26.2106 38.756 26.1406 38.4538C26.6566 38.0242 26.9915 37.4158 27.0786 36.7501H27.125C27.1796 36.7447 27.2335 36.7338 27.286 36.7178C29.1254 38.4718 31.5839 39.4271 34.125 39.3751C38.5796 39.3751 42.2669 36.6985 42.8068 33.2501H45.3722L44.2137 41.7446C44.1983 41.8585 44.2055 41.9743 44.2349 42.0854C44.2642 42.1965 44.3152 42.3007 44.3848 42.3921C44.4544 42.4835 44.5414 42.5603 44.6407 42.6181C44.74 42.6759 44.8498 42.7136 44.9636 42.729C45.0027 42.7349 45.0422 42.7379 45.0817 42.7378C45.2934 42.7378 45.4978 42.6611 45.6573 42.522C45.8167 42.3828 45.9203 42.1906 45.9489 41.9809L47.2421 32.4933C47.259 32.3694 47.2491 32.2435 47.2132 32.1238C47.1773 32.0041 47.1161 31.8935 47.0339 31.7994ZM15.75 7.58115C15.75 7.43713 15.7855 7.29533 15.8534 7.16834C15.9214 7.04134 16.0196 6.93308 16.1394 6.85315L23.2864 2.08878L24.2576 3.54478L17.8894 7.78765C17.7696 7.86758 17.6714 7.97584 17.6034 8.10284C17.5355 8.22983 17.5 8.37163 17.5 8.51565V13.1251H15.75V7.58115ZM8.75 16.6251V15.7501C8.75 15.5181 8.84219 15.2955 9.00628 15.1314C9.17038 14.9673 9.39294 14.8751 9.625 14.8751H23.625C23.8571 14.8751 24.0796 14.9673 24.2437 15.1314C24.4078 15.2955 24.5 15.5181 24.5 15.7501V16.6251H8.75ZM35.8155 29.1061L37.5839 29.5436L37.1394 37.1019C36.5588 37.3112 35.9574 37.4579 35.3456 37.5394L35.8155 29.1061ZM32.4695 20.5828L34.153 22.2663L34.5529 27.2634C34.5281 27.2729 34.5039 27.2837 34.4802 27.2958C34.3774 27.3726 34.2927 27.4712 34.2322 27.5845C34.1717 27.6977 34.1369 27.8229 34.1302 27.9511L33.5939 37.5963C33.0027 37.5621 32.4165 37.4689 31.8439 37.318L30.6495 23.0126L32.4695 20.5828ZM20.5056 25.3751H22.1515L22.939 27.4051C22.3106 27.0682 21.6464 26.8026 20.9589 26.6133L20.5056 25.3751ZM24.4729 39.1039C24.4872 39.1937 24.4962 39.2843 24.5 39.3751C24.5 40.0713 24.2234 40.739 23.7312 41.2313C23.2389 41.7236 22.5712 42.0001 21.875 42.0001H6.125C5.44917 41.9978 4.80029 41.7349 4.31345 41.2661C3.8266 40.7974 3.53931 40.1589 3.51137 39.4836L3.59188 39.5248C4.10698 39.7807 4.67436 39.914 5.24956 39.914C5.82476 39.914 6.39215 39.7807 6.90725 39.5248L8.31513 38.8248C8.45008 38.757 8.599 38.7218 8.75 38.7218C8.901 38.7218 9.04992 38.757 9.18487 38.8248L11.032 39.7479C11.4104 39.9361 11.8273 40.034 12.25 40.034C12.6727 40.034 13.0896 39.9361 13.468 39.7479L15.3125 38.8213C15.4475 38.7535 15.5964 38.7183 15.7474 38.7183C15.8984 38.7183 16.0473 38.7535 16.1822 38.8213L18.0294 39.7444C18.4078 39.9326 18.8247 40.0305 19.2474 40.0305C19.67 40.0305 20.0869 39.9326 20.4654 39.7444L22.3125 38.8213C22.4475 38.7535 22.5964 38.7183 22.7474 38.7183C22.8984 38.7183 23.0473 38.7535 23.1822 38.8213C23.5827 39.0201 24.026 39.1172 24.4729 39.1039ZM4.375 45.5001C4.14294 45.5001 3.92038 45.408 3.75628 45.2439C3.59219 45.0798 3.5 44.8572 3.5 44.6251C3.5 44.3931 3.59219 44.1705 3.75628 44.0064C3.92038 43.8423 4.14294 43.7501 4.375 43.7501H12.7041L14.1041 45.5001H4.375ZM16.625 45.8501L14.9459 43.7501H18.3041L16.625 45.8501ZM24.9139 37.2139C24.8816 37.2313 24.8483 37.2468 24.8141 37.2603C24.8074 37.2598 24.8007 37.2598 24.794 37.2603C24.7826 37.2646 24.7765 37.2743 24.7651 37.2786C24.6385 37.3329 24.5015 37.3588 24.3637 37.3544C24.226 37.35 24.0909 37.3155 23.968 37.2533C23.5896 37.0651 23.1727 36.9671 22.75 36.9671C22.3273 36.9671 21.9104 37.0651 21.532 37.2533L19.6875 38.179C19.5525 38.2467 19.4036 38.282 19.2526 38.282C19.1016 38.282 18.9527 38.2467 18.8178 38.179L16.9706 37.2559C16.5922 37.0677 16.1753 36.9697 15.7526 36.9697C15.33 36.9697 14.9131 37.0677 14.5346 37.2559L12.6875 38.179C12.5525 38.2467 12.4036 38.282 12.2526 38.282C12.1016 38.282 11.9527 38.2467 11.8178 38.179L9.97062 37.2559C9.59219 37.0677 9.17528 36.9697 8.75263 36.9697C8.32997 36.9697 7.91306 37.0677 7.53463 37.2559L6.12763 37.9559C5.85573 38.091 5.55624 38.1613 5.25263 38.1613C4.94901 38.1613 4.64952 38.091 4.37763 37.9559L3.7065 37.6251C3.33289 37.4342 3.03136 37.1272 2.84725 36.7501H25.298C25.2232 36.9418 25.0884 37.1041 24.9139 37.213V37.2139ZM27.9335 34.7823C27.7754 33.4021 27.3182 32.073 26.5939 30.8876L25.4214 27.1348L25.9508 25.5921L27.3166 26.062L29.7124 32.8275L30.0265 36.5953C29.1989 36.1593 28.4827 35.5386 27.9335 34.7814V34.7823ZM38.9471 36.1718L39.375 28.9268C39.387 28.7231 39.3274 28.5217 39.2067 28.3573C39.0859 28.1929 38.9114 28.0758 38.7135 28.0264L38.6155 28.0001L39.228 23.1071L41.8801 24.1685L39.7197 35.5173C39.4805 35.7559 39.2221 35.9745 38.9471 36.1709V36.1718Z" fill="white"/>
</svg>
