<svg width="12" height="16" viewBox="0 0 12 16" fill="none" xmlns="http://www.w3.org/2000/svg">
<path fill-rule="evenodd" clip-rule="evenodd" d="M11.8798 12.6448C11.8798 15.1168 8.4898 15.4026 5.94055 15.4026L5.75813 15.4024C4.13396 15.3985 -0.000198364 15.2959 -0.000198364 12.6298C-0.000198364 10.2083 3.25357 9.88463 5.78342 9.87243L6.12297 9.87221C7.74704 9.87616 11.8798 9.9787 11.8798 12.6448ZM5.94055 10.9971C2.7448 10.9971 1.1248 11.5461 1.1248 12.6298C1.1248 13.7233 2.7448 14.2776 5.94055 14.2776C9.13555 14.2776 10.7548 13.7286 10.7548 12.6448C10.7548 11.5513 9.13555 10.9971 5.94055 10.9971ZM5.94055 0.499756C8.13655 0.499756 9.9223 2.28626 9.9223 4.48226C9.9223 6.67826 8.13655 8.46401 5.94055 8.46401H5.91655C3.72505 8.45726 1.9498 6.67001 1.95728 4.48001C1.95728 2.28626 3.7438 0.499756 5.94055 0.499756ZM5.94055 1.57076C4.3348 1.57076 3.02829 2.87651 3.02829 4.48226C3.02305 6.08276 4.3198 7.38776 5.9188 7.39376L5.94055 7.92926V7.39376C7.54555 7.39376 8.8513 6.08726 8.8513 4.48226C8.8513 2.87651 7.54555 1.57076 5.94055 1.57076Z" fill="#2C2929"/>
</svg>
